/vscmnt/brussel_pixiu_data/_data_brussel/112/vsc11236/PredSimResults/SUBJ11opt3D/weighted-LRposFixed/expIG/worker_02.mot
version=1
nRows=6
nColumns=50
inDegrees=yes
endheader
                time	         pelvis_tilt	         pelvis_list	     pelvis_rotation	           pelvis_tx	           pelvis_ty	           pelvis_tz	       hip_flexion_r	     hip_adduction_r	      hip_rotation_r	        knee_angle_r	       ankle_angle_r	         mtp_angle_r	       hip_flexion_l	     hip_adduction_l	      hip_rotation_l	        knee_angle_l	       ankle_angle_l	         mtp_angle_l	    lumbar_extension	      lumbar_bending	     lumbar_rotation	 ercspn_r/activation	 intobl_r/activation	 extobl_r/activation	    abd_r/activation	    add_r/activation	hamstrings_r/activation	bifemsh_r/activation	glut_max_r/activation	iliopsoas_r/activation	rect_fem_r/activation	  vasti_r/activation	gastroc_r/activation	 soleus_r/activation	tib_ant_r/activation	 ercspn_l/activation	 intobl_l/activation	 extobl_l/activation	    abd_l/activation	    add_l/activation	hamstrings_l/activation	bifemsh_l/activation	glut_max_l/activation	iliopsoas_l/activation	rect_fem_l/activation	  vasti_l/activation	gastroc_l/activation	 soleus_l/activation	tib_ant_l/activation	
          0.69942741	         -2.74606574	          1.20227399	         -5.97777181	          0.72740451	          0.94243336	          0.00521153	        -13.53595139	         -3.18031266	         -1.60343217	        -11.82647309	         13.04519187	         28.53191071	         30.95211096	         -1.69647707	         -3.98586083	         -9.72920438	          1.72297345	          0.22386519	        -14.39543552	          2.46652698	          3.24625597	          0.01000035	          0.01000021	          0.01000029	          0.04241922	          0.01000062	          0.01729470	          0.27498732	          0.02851326	          0.16353843	          0.01000107	          0.01000027	          0.16157879	          0.32759313	          0.01479946	          0.02796864	          0.26009142	          0.07003687	          0.01000024	          0.18951331	          0.04279971	          0.12885933	          0.03426830	          0.10534802	          0.04446805	          0.01784683	          0.01000014	          0.01000002	          0.40457760	
          0.71341596	         -2.89143037	          1.25678765	         -6.07399738	          0.74588087	          0.94015985	          0.00390398	        -14.07691564	         -3.43842236	         -1.96537953	        -12.56334966	         12.31569399	         30.33795703	         30.76053633	         -1.49970665	         -4.20366045	        -10.80457010	          1.18917677	          0.23340935	        -13.94383085	          1.95559836	          3.45829010	          0.01544094	          0.01000044	          0.01000058	          0.03439931	          0.04610746	          0.02618397	          0.22301317	          0.02312263	          0.17542366	          0.01000146	          0.01000046	          0.13309750	          0.30875916	          0.01200146	          0.02268121	          0.21091775	          0.05679545	          0.01000010	          0.21111445	          0.03875691	          0.10449733	          0.09597173	          0.08543056	          0.03606094	          0.01447271	          0.01242224	          0.01289810	          0.42585209	
          0.72740451	         -3.01355053	          1.32444214	         -6.15118488	          0.76482385	          0.93816008	          0.00254179	        -14.49038212	         -3.72312204	         -2.33491417	        -13.59289436	         11.43649153	         32.22986670	         30.46837136	         -1.32216632	         -4.33649650	        -12.02734655	          0.70043288	          0.20990219	        -13.45234695	          1.42035381	          3.66863892	          0.01252224	          0.01000013	          0.01000060	          0.02789567	          0.03739053	          0.02123430	          0.18085219	          0.01875106	          0.15899392	          0.01000092	          0.01000025	          0.10793365	          0.28363774	          0.01000011	          0.01839512	          0.17104097	          0.04605751	          0.05519342	          0.20922484	          0.04651047	          0.08474121	          0.11610325	          0.06927876	          0.02924329	          0.01173655	          0.01007375	          0.01045957	          0.49459331	
          0.74139305	         -3.11552627	          1.38451074	         -6.19814599	          0.78387828	          0.93666125	          0.00109219	        -14.67546699	         -4.01317141	         -2.71449200	        -15.03613467	         10.35795929	         34.21551773	         30.18411463	         -1.16410839	         -4.54813870	        -13.25513093	         -0.01875187	          0.18297778	        -12.96408696	          0.89097219	          3.86668152	          0.04000841	          0.01000017	          0.01000034	          0.02262162	          0.03312905	          0.02793351	          0.14666079	          0.01520601	          0.12893955	          0.01000072	          0.01000025	          0.08752734	          0.25557983	          0.01000011	          0.02716955	          0.13870339	          0.03734972	          0.09089738	          0.24898098	          0.04650249	          0.06872008	          0.11434348	          0.05618067	          0.02371460	          0.03549411	          0.01000020	          0.01000007	          0.55495569	
          0.75538160	         -3.19692489	          1.43639330	         -6.21687131	          0.80283485	          0.93579198	         -0.00043533	        -14.56226310	         -4.31138251	         -3.09994742	        -16.98309397	          9.06153238	         36.24635428	         29.98130824	         -1.02635187	         -4.81697381	        -14.66596108	         -0.59427265	          0.13522609	        -12.50013229	          0.37025656	          4.04929036	          0.06537885	          0.01000019	          0.01000028	          0.01834471	          0.09804777	          0.02947729	          0.11893412	          0.01233118	          0.10456424	          0.01000047	          0.01000012	          0.07097912	          0.21279989	          0.01000009	          0.02954054	          0.11247965	          0.03028826	          0.11858738	          0.28140715	          0.05292464	          0.05572804	          0.11396176	          0.04555896	          0.01923117	          0.11371605	          0.01000029	          0.01000011	          0.58923206	
          0.76937015	         -3.25980975	          1.47773009	         -6.20602214	          0.82152354	          0.93569923	         -0.00201177	        -14.08011556	         -4.61631783	         -3.49393770	        -19.52325211	          7.54034488	         38.17413241	         29.79158201	         -0.89662176	         -5.08706150	        -16.16486586	         -0.80054094	          0.07958114	        -12.07442060	         -0.13908714	          4.21108463	          0.09016683	          0.01000021	          0.01000035	          0.01487640	          0.16055479	          0.04114094	          0.09645034	          0.01000011	          0.08479560	          0.01000031	          0.01000007	          0.05755956	          0.17256718	          0.01000008	          0.02395632	          0.09121387	          0.02456187	          0.13484516	          0.30430094	          0.05507038	          0.04519240	          0.13145335	          0.03694543	          0.01559541	          0.15935245	          0.01000027	          0.01000008	          0.57765751	
